<svg xmlns="http://www.w3.org/2000/svg" viewBox="0 0 560 235" role="img" aria-labelledby="title">
  <title id="title">VisionOps logo</title>
  <defs>
    <linearGradient id="silver" x1="58" y1="194" x2="253" y2="25" gradientUnits="userSpaceOnUse">
      <stop offset="0" stop-color="#eff5fa"/>
      <stop offset="0.16" stop-color="#243142"/>
      <stop offset="0.34" stop-color="#ffffff"/>
      <stop offset="0.52" stop-color="#7e8c9c"/>
      <stop offset="0.7" stop-color="#f8fbff"/>
      <stop offset="0.86" stop-color="#11243c"/>
      <stop offset="1" stop-color="#dfe9f3"/>
    </linearGradient>
    <linearGradient id="blue" x1="318" y1="207" x2="526" y2="28" gradientUnits="userSpaceOnUse">
      <stop offset="0" stop-color="#021e57"/>
      <stop offset="0.18" stop-color="#11c7ff"/>
      <stop offset="0.37" stop-color="#f8fbff"/>
      <stop offset="0.52" stop-color="#0c3eb5"/>
      <stop offset="0.72" stop-color="#247eff"/>
      <stop offset="0.91" stop-color="#032063"/>
      <stop offset="1" stop-color="#c9e8ff"/>
    </linearGradient>
    <linearGradient id="edge" x1="84" y1="218" x2="520" y2="6" gradientUnits="userSpaceOnUse">
      <stop offset="0" stop-color="#ffffff"/>
      <stop offset="0.28" stop-color="#d0d4dc"/>
      <stop offset="0.55" stop-color="#ffffff"/>
      <stop offset="0.82" stop-color="#7ac8ff"/>
      <stop offset="1" stop-color="#ffffff"/>
    </linearGradient>
    <filter id="lift" x="-8%" y="-12%" width="116%" height="128%">
      <feDropShadow dx="0" dy="4" stdDeviation="3" flood-color="#001b4a" flood-opacity=".28"/>
      <feDropShadow dx="0" dy="-1" stdDeviation="1" flood-color="#ffffff" flood-opacity=".55"/>
    </filter>
  </defs>
  <g filter="url(#lift)">
    <path
      d="M13 78c35-17 65-23 91-13 22 8 46 44 73 110 4 9 11 10 18 2 30-34 55-75 74-122 9-22 20-37 33-43 15-7 35-5 61 5-15 73-51 138-108 195-22 22-48 23-68 0-19-22-34-49-48-75-15-28-29-53-46-61-20-9-46-8-80 2Z"
      fill="url(#silver)"
      stroke="url(#edge)"
      stroke-width="6"
      stroke-linejoin="round"
    />
    <path
      d="M410 18c80-16 143 18 148 70 6 57-45 116-124 135-80 19-149-9-155-63-6-57 50-126 131-142Zm22 54c-50 10-86 43-90 77-3 31 29 49 74 43 50-7 92-38 99-69 7-30-27-62-83-51Z"
      fill="url(#blue)"
      fill-rule="evenodd"
      stroke="url(#edge)"
      stroke-width="6"
      stroke-linejoin="round"
    />
  </g>
</svg>
